<mxfile host="app.diagrams.net" modified="2024-03-20T17:05:47.981Z" agent="Mozilla/5.0 (Windows NT 10.0; Win64; x64) AppleWebKit/537.36 (KHTML, like Gecko) Chrome/122.0.0.0 Safari/537.36" etag="tlSJEFC-DCx-Shmbb6Uz" version="24.0.7" type="github">
  <diagram name="Page-1" id="QtfEjkOtpLFMkZAzNLs4">
    <mxGraphModel dx="1434" dy="780" grid="1" gridSize="10" guides="1" tooltips="1" connect="1" arrows="1" fold="1" page="1" pageScale="1" pageWidth="850" pageHeight="1100" math="0" shadow="0">
      <root>
        <mxCell id="0" />
        <mxCell id="1" parent="0" />
        <mxCell id="42FmxvBwuT499A1IY16l-26" style="rounded=0;orthogonalLoop=1;jettySize=auto;html=1;dashed=1;dashPattern=1 4;endArrow=none;endFill=0;strokeColor=#00FF00;" edge="1" parent="1" source="HxvYnMOF_ba8woNKWuBM-1" target="HxvYnMOF_ba8woNKWuBM-2">
          <mxGeometry relative="1" as="geometry" />
        </mxCell>
        <mxCell id="HxvYnMOF_ba8woNKWuBM-1" value="" style="sketch=0;outlineConnect=0;fontColor=#232F3E;gradientColor=none;fillColor=#232F3D;strokeColor=none;dashed=0;verticalLabelPosition=bottom;verticalAlign=top;align=center;html=1;fontSize=12;fontStyle=0;aspect=fixed;pointerEvents=1;shape=mxgraph.aws4.traditional_server;" parent="1" vertex="1">
          <mxGeometry x="140" y="410" width="45" height="78" as="geometry" />
        </mxCell>
        <mxCell id="HxvYnMOF_ba8woNKWuBM-2" value="" style="sketch=0;outlineConnect=0;fontColor=#232F3E;gradientColor=none;fillColor=#232F3D;strokeColor=none;dashed=0;verticalLabelPosition=bottom;verticalAlign=top;align=center;html=1;fontSize=12;fontStyle=0;aspect=fixed;pointerEvents=1;shape=mxgraph.aws4.traditional_server;" parent="1" vertex="1">
          <mxGeometry x="140" y="240" width="45" height="78" as="geometry" />
        </mxCell>
        <mxCell id="42FmxvBwuT499A1IY16l-25" style="rounded=0;orthogonalLoop=1;jettySize=auto;html=1;dashed=1;dashPattern=1 4;endArrow=none;endFill=0;strokeColor=#00FF00;" edge="1" parent="1" source="42FmxvBwuT499A1IY16l-1" target="HxvYnMOF_ba8woNKWuBM-2">
          <mxGeometry relative="1" as="geometry" />
        </mxCell>
        <mxCell id="42FmxvBwuT499A1IY16l-1" value="" style="verticalLabelPosition=bottom;html=1;verticalAlign=top;align=center;strokeColor=none;fillColor=#00BEF2;shape=mxgraph.azure.computer;pointerEvents=1;" vertex="1" parent="1">
          <mxGeometry x="390" y="488" width="50" height="45" as="geometry" />
        </mxCell>
        <mxCell id="42FmxvBwuT499A1IY16l-2" value="" style="verticalLabelPosition=bottom;html=1;verticalAlign=top;align=center;strokeColor=#b85450;fillColor=#f8cecc;shape=mxgraph.azure.computer;pointerEvents=1;" vertex="1" parent="1">
          <mxGeometry x="560" y="332.5" width="50" height="45" as="geometry" />
        </mxCell>
        <mxCell id="42FmxvBwuT499A1IY16l-4" value="" style="sketch=0;points=[[0.015,0.015,0],[0.985,0.015,0],[0.985,0.985,0],[0.015,0.985,0],[0.25,0,0],[0.5,0,0],[0.75,0,0],[1,0.25,0],[1,0.5,0],[1,0.75,0],[0.75,1,0],[0.5,1,0],[0.25,1,0],[0,0.75,0],[0,0.5,0],[0,0.25,0]];verticalLabelPosition=bottom;html=1;verticalAlign=top;aspect=fixed;align=center;pointerEvents=1;shape=mxgraph.cisco19.rect;prIcon=l2_switch;fillColor=#FAFAFA;strokeColor=#005073;" vertex="1" parent="1">
          <mxGeometry x="390" y="330" width="50" height="50" as="geometry" />
        </mxCell>
        <mxCell id="42FmxvBwuT499A1IY16l-17" style="rounded=0;orthogonalLoop=1;jettySize=auto;html=1;exitX=0.5;exitY=0;exitDx=0;exitDy=0;exitPerimeter=0;" edge="1" parent="1" source="42FmxvBwuT499A1IY16l-5" target="42FmxvBwuT499A1IY16l-6">
          <mxGeometry relative="1" as="geometry" />
        </mxCell>
        <mxCell id="42FmxvBwuT499A1IY16l-5" value="" style="sketch=0;points=[[0.5,0,0],[1,0.5,0],[0.5,1,0],[0,0.5,0],[0.145,0.145,0],[0.8555,0.145,0],[0.855,0.8555,0],[0.145,0.855,0]];verticalLabelPosition=bottom;html=1;verticalAlign=top;aspect=fixed;align=center;pointerEvents=1;shape=mxgraph.cisco19.rect;prIcon=router;fillColor=#FAFAFA;strokeColor=#005073;" vertex="1" parent="1">
          <mxGeometry x="390" y="200" width="50" height="50" as="geometry" />
        </mxCell>
        <mxCell id="42FmxvBwuT499A1IY16l-6" value="Internet" style="ellipse;shape=cloud;whiteSpace=wrap;html=1;" vertex="1" parent="1">
          <mxGeometry x="355" y="30" width="120" height="80" as="geometry" />
        </mxCell>
        <mxCell id="42FmxvBwuT499A1IY16l-11" style="edgeStyle=orthogonalEdgeStyle;rounded=0;orthogonalLoop=1;jettySize=auto;html=1;entryX=0.5;entryY=1;entryDx=0;entryDy=0;entryPerimeter=0;" edge="1" parent="1" source="42FmxvBwuT499A1IY16l-1" target="42FmxvBwuT499A1IY16l-4">
          <mxGeometry relative="1" as="geometry" />
        </mxCell>
        <mxCell id="42FmxvBwuT499A1IY16l-13" style="edgeStyle=orthogonalEdgeStyle;rounded=0;orthogonalLoop=1;jettySize=auto;html=1;entryX=0;entryY=0.5;entryDx=0;entryDy=0;entryPerimeter=0;" edge="1" parent="1" source="HxvYnMOF_ba8woNKWuBM-1" target="42FmxvBwuT499A1IY16l-4">
          <mxGeometry relative="1" as="geometry" />
        </mxCell>
        <mxCell id="42FmxvBwuT499A1IY16l-15" style="edgeStyle=orthogonalEdgeStyle;rounded=0;orthogonalLoop=1;jettySize=auto;html=1;entryX=0;entryY=0.5;entryDx=0;entryDy=0;entryPerimeter=0;" edge="1" parent="1" source="HxvYnMOF_ba8woNKWuBM-2" target="42FmxvBwuT499A1IY16l-4">
          <mxGeometry relative="1" as="geometry" />
        </mxCell>
        <mxCell id="42FmxvBwuT499A1IY16l-16" style="edgeStyle=orthogonalEdgeStyle;rounded=0;orthogonalLoop=1;jettySize=auto;html=1;entryX=1;entryY=0.5;entryDx=0;entryDy=0;entryPerimeter=0;" edge="1" parent="1" source="42FmxvBwuT499A1IY16l-2" target="42FmxvBwuT499A1IY16l-4">
          <mxGeometry relative="1" as="geometry" />
        </mxCell>
        <mxCell id="42FmxvBwuT499A1IY16l-18" style="edgeStyle=orthogonalEdgeStyle;rounded=0;orthogonalLoop=1;jettySize=auto;html=1;entryX=0.5;entryY=1;entryDx=0;entryDy=0;entryPerimeter=0;" edge="1" parent="1" source="42FmxvBwuT499A1IY16l-4" target="42FmxvBwuT499A1IY16l-5">
          <mxGeometry relative="1" as="geometry" />
        </mxCell>
        <mxCell id="42FmxvBwuT499A1IY16l-19" value="Domain: LONG&lt;div&gt;Network: 192.168.10.0/24&lt;/div&gt;&lt;div&gt;Splunk Server: 192.168.10.10&lt;/div&gt;&lt;div&gt;Active Directory:192.168.10.7&lt;/div&gt;&lt;div&gt;Attacker: 192.168.10.250&lt;/div&gt;" style="text;html=1;align=center;verticalAlign=middle;resizable=0;points=[];autosize=1;strokeColor=none;fillColor=none;" vertex="1" parent="1">
          <mxGeometry x="72.5" y="40" width="180" height="90" as="geometry" />
        </mxCell>
        <mxCell id="42FmxvBwuT499A1IY16l-20" value="Splunk Server&lt;div&gt;IP: 192.168.10.10&lt;/div&gt;" style="text;html=1;align=center;verticalAlign=middle;resizable=0;points=[];autosize=1;strokeColor=none;fillColor=none;" vertex="1" parent="1">
          <mxGeometry x="102.5" y="313" width="120" height="40" as="geometry" />
        </mxCell>
        <mxCell id="42FmxvBwuT499A1IY16l-21" value="Active Directory&lt;div&gt;IP: 192.168.10.7&lt;/div&gt;&lt;div&gt;Splunk Universal Forwarder&lt;/div&gt;&lt;div&gt;Sysmon&lt;/div&gt;" style="text;html=1;align=center;verticalAlign=middle;resizable=0;points=[];autosize=1;strokeColor=none;fillColor=none;" vertex="1" parent="1">
          <mxGeometry x="77.5" y="488" width="170" height="70" as="geometry" />
        </mxCell>
        <mxCell id="42FmxvBwuT499A1IY16l-22" value="Windows 10&amp;nbsp;&lt;div&gt;IP: DHCP&lt;/div&gt;&lt;div&gt;Splunk Universal Forwarder&lt;/div&gt;&lt;div&gt;Atomic Red Team&lt;/div&gt;" style="text;html=1;align=center;verticalAlign=middle;resizable=0;points=[];autosize=1;strokeColor=none;fillColor=none;" vertex="1" parent="1">
          <mxGeometry x="330" y="535" width="170" height="70" as="geometry" />
        </mxCell>
        <mxCell id="42FmxvBwuT499A1IY16l-23" value="Kali Linux&lt;div&gt;IP: 192.168.10.250&lt;/div&gt;" style="text;html=1;align=center;verticalAlign=middle;resizable=0;points=[];autosize=1;strokeColor=none;fillColor=none;" vertex="1" parent="1">
          <mxGeometry x="525" y="377.5" width="120" height="40" as="geometry" />
        </mxCell>
      </root>
    </mxGraphModel>
  </diagram>
</mxfile>
